<svg xmlns="http://www.w3.org/2000/svg" viewBox="0 0 1600 420" role="img"><defs><linearGradient id="sky" x1="0" y1="0" x2="0" y2="1"><stop stop-color="#6ca8d8"/><stop offset=".55" stop-color="#b7d8df"/><stop offset="1" stop-color="#eef3ef"/></linearGradient><linearGradient id="land" x1="0" y1="0" x2="1" y2="1"><stop stop-color="#214f5a"/><stop offset="1" stop-color="#0d2940"/></linearGradient></defs><rect width="1600" height="420" fill="url(#sky)"/><circle cx="1230" cy="100" r="70" fill="#fff" opacity=".42"/><path d="M0 280L210 190l120 70 190-150 160 120 190-175 170 120 180-85 370 160v180H0z" fill="#507c83" opacity=".62"/><path d="M0 320l240-110 160 75 220-130 160 95 180-120 180 90 180-50 280 110v140H0z" fill="url(#land)"/><path d="M0 355c240-50 360 25 590-15 260-45 390 30 650-12 150-24 250-8 360 8v84H0z" fill="#153b43"/><g opacity=".75" fill="#f4f8f6"><path d="M1080 205c26-43 72-58 105-31 18 14 24 36 19 56 34-13 70 4 82 37 12 34-10 70-45 78-50 12-99-17-122-54-14-22-42-51-39-86z"/><path d="M1200 218c15-25 41-32 61-17 13 10 17 25 13 39 22-7 45 5 51 26 7 22-7 44-30 50-31 8-62-10-77-34-10-15-27-33-18-64z"/></g></svg>